<?xml version="1.0" encoding="utf-8"?>
<!-- Generator: Adobe Illustrator 17.0.2, SVG Export Plug-In . SVG Version: 6.00 Build 0)  -->
<!DOCTYPE svg PUBLIC "-//W3C//DTD SVG 1.1//EN" "http://www.w3.org/Graphics/SVG/1.1/DTD/svg11.dtd">
<svg version="1.1" id="Layer_1" xmlns="http://www.w3.org/2000/svg" xmlns:xlink="http://www.w3.org/1999/xlink" x="0px" y="0px"
	 width="275.45px" height="458.858px" viewBox="161.712 168.277 275.45 458.858"
	 enable-background="new 161.712 168.277 275.45 458.858" xml:space="preserve">
<g>
	<g>
		<g opacity="0">
			<path fill="#3A3B3B" d="M443.391,479.455c-0.155-0.85-0.541-1.855-1.005-2.627s-1.468-1.082-2.318-1.468h-1.855
				c-0.85,0.309-1.777,0.695-2.473,1.236c-0.85,0.618-1.468,1.623-2.164,2.473c-0.618,0.773-1.236,1.777-1.855,2.473
				c-1.391,1.7-2.705,3.4-4.018,5.1c-2.627,3.4-5.255,6.723-7.882,10.123s-5.255,6.8-7.959,10.2
				c-1.314,1.623-2.55,3.323-3.864,5.023c-0.695,0.85-1.314,1.7-2.009,2.627c-0.618,0.773-1.391,1.623-1.932,2.473
				c-0.541,0.85-1.314,1.7-1.932,2.473c-0.695,0.85-1.468,1.7-2.009,2.627c-0.541,0.85-1.236,1.623-1.7,2.473
				c-0.464,0.85-0.695,1.623-0.927,2.627c-0.773,3.014-0.386,6.8-0.386,10.123c0,6.8,0,13.523,0,20.323c0,3.4,0,6.723,0,10.123
				c0,1.7,0,3.4,0,5.1c0,0.85,0,1.7,0,2.473c0,0.464,0,0.927,0,1.391c0,0.541-0.155,0.695-0.386,1.082H261.259
				c-0.618-0.618,0.232-1.314,0.541-1.777c0.386-0.618,0.927-1.082,1.314-1.7c0.85-1.314,1.932-2.473,2.936-3.709
				c0.927-1.159,1.777-2.473,2.705-3.632c1.932-2.395,3.709-4.868,5.641-7.264c1.932-2.395,3.786-4.868,5.718-7.341
				c0.927-1.159,1.855-2.318,2.782-3.555c0.464-0.541,0.85-1.314,1.314-1.855c0.541-0.618,1.082-1.236,1.468-1.855
				c0.773-1.236,1.855-2.395,2.782-3.555c0.927-1.159,1.855-2.55,2.782-3.709c1.932-2.473,3.786-4.868,5.718-7.264
				c0.927-1.159,1.777-2.473,2.705-3.632c1.005-1.236,1.932-2.395,2.859-3.632c0.927-1.314,1.932-2.473,2.936-3.709
				c0.927-1.082,1.7-2.395,2.627-3.555c2.009-2.395,3.786-4.791,5.718-7.264c0.464-0.541,0.927-1.314,1.391-1.932
				c0.464-0.618,1.005-1.159,1.391-1.777c0.85-1.314,1.932-2.395,2.859-3.632c3.786-4.791,7.495-9.736,11.205-14.527
				c1.855-2.473,3.786-4.791,5.718-7.264c0.927-1.159,1.777-2.473,2.705-3.632c0.927-1.236,2.009-2.318,2.859-3.632
				c0.85-1.236,1.855-2.473,2.782-3.632c0.927-1.159,1.855-2.395,2.782-3.632c0.927-1.314,1.932-2.473,2.936-3.709
				c0.927-1.082,1.7-2.395,2.627-3.555c2.009-2.395,3.786-4.791,5.718-7.264c0.927-1.159,1.855-2.55,2.782-3.709
				c0.464-0.618,1.005-1.236,1.468-1.855c0.464-0.618,1.005-1.159,1.391-1.777c0.773-1.314,1.855-2.395,2.859-3.632
				c0.464-0.541,0.85-1.314,1.314-1.855c0.464-0.618,0.927-1.159,1.391-1.777c0.927-1.236,2.009-2.318,2.859-3.632
				c0.85-1.236,2.009-2.241,2.782-3.632c0-0.077,0-0.155,0-0.155h0.155c0-0.077,0-0.155,0-0.155h0.155c0-0.077,0-0.155,0-0.155
				h0.155c0-0.077,0-0.155,0-0.155h0.155c0-0.077,0-0.155,0-0.155v-0.155h0.155c0-0.077,0-0.155,0-0.155h0.155
				c0-0.077,0-0.155,0-0.155h0.155c0-0.077,0-0.155,0-0.155v-0.155h0.155c0-0.077,0-0.155,0-0.155h0.155c0-0.077,0-0.155,0-0.155
				h0.155c0-0.077,0-0.155,0-0.155h0.155c0-0.077,0-0.155,0-0.155c0-0.077,0-0.155,0-0.155h0.155c0-0.077,0-0.155,0-0.155h0.155
				c0.077-0.155,0.155-0.232,0.155-0.386c0.232-0.464,0.695-0.773,0.927-1.236c0.309-0.464,0.618-0.695,0.927-1.082
				c0.618-0.695,1.314-1.623,1.855-2.395c0.541-0.85,1.314-1.545,1.855-2.395c0.541-0.773,1.082-1.545,1.7-2.241
				c1.159-1.391,2.318-2.782,3.323-4.25c1.005-1.468,2.318-2.782,3.323-4.25c0.927-1.391,2.241-2.627,3.168-4.095
				c1.005-1.545,2.318-2.782,3.323-4.25s2.318-2.782,3.323-4.25c0.927-1.391,2.164-2.705,3.168-4.095
				c1.082-1.468,2.164-2.859,3.323-4.25c0.618-0.695,1.159-1.545,1.855-2.241c0.309-0.309,0.464-0.618,0.773-0.927
				c0.309-0.309,0.773-0.541,0.773-1.005h0.155c0-0.077,0-0.155,0-0.155h0.155c0-0.077,0-0.155,0-0.155h0.155
				c0-0.077,0-0.155,0-0.155h0.155c0-0.077,0-0.155,0-0.155h0.155c0-0.077,0-0.155,0-0.155v-0.155h0.155c0-0.077,0-0.155,0-0.155
				h0.155c0-0.077,0-0.155,0-0.155h0.155c0-0.077,0-0.155,0-0.155h0.155c0-0.077,0-0.155,0-0.155h0.155
				c-0.077-0.618,1.082-1.468,1.468-1.932c0.464-0.541,0.85-1.314,1.314-1.855c2.164-2.627,3.941-5.409,5.718-8.191
				c1.7-2.627,3.168-5.409,4.714-8.036c0.773-1.314,1.468-2.627,2.164-4.018c0.386-0.773,0.773-1.468,1.082-2.241
				c0.155-0.309,0.232-0.618,0.386-0.927c0.077-0.155,0.232-0.309,0.309-0.464c0.077-0.155,0-0.309,0.077-0.464
				c0.695-1.314,1.391-2.705,1.855-4.095c0.464-1.391,1.236-2.705,1.7-4.095c0.927-2.705,1.855-5.332,2.782-7.959
				c0.232-0.695,0.386-1.391,0.541-2.164c0.077-0.309,0.232-0.695,0.386-1.005c0.077-0.309,0.077-0.618,0.155-0.927
				c0.464-1.314,0.695-2.782,1.082-4.095c0.464-1.314,0.541-2.705,0.927-4.018c0.232-0.695,0.309-1.391,0.386-2.164
				c0.077-0.618,0.309-1.236,0.386-1.855c0.077-0.773,0.232-1.468,0.386-2.241c0.077-0.618,0.077-1.236,0.155-1.855
				c0.077-0.232,0.155-0.386,0.155-0.773c0-0.155,0-0.232,0-0.386c0.077-0.386,0.155-0.618,0.155-1.005
				c0-0.386,0.155-0.618,0.155-1.005c0.077-0.309-0.077-0.618,0-0.927c0.077-0.618,0.077-1.314,0.155-2.009
				c0.077-0.386,0.155-0.618,0.155-1.005c0-0.309-0.077-0.695,0-1.005c0.077-0.386,0.155-0.618,0.155-1.082c0-0.309,0-0.618,0-0.927
				c0-0.695,0.155-1.236,0.155-1.932c0-1.391,0.155-2.627,0.155-4.018c0-1.391,0-2.705,0-4.095c0-1.468-0.155-2.627-0.155-4.095
				c0-0.773-0.077-1.391-0.155-2.009c-0.077-0.695,0.077-1.391,0-2.009c-0.077-0.386-0.155-0.618-0.155-1.082
				c0-0.309,0.077-0.618,0-0.927c-0.077-0.386-0.155-0.541-0.155-0.927c0-0.309,0.077-0.618,0-0.927
				c-0.077-0.695-0.232-1.545-0.386-2.241c-0.077-0.309,0.077-0.618,0-0.927c-0.077-0.386-0.155-0.541-0.155-0.927
				c0-0.464-0.155-0.695-0.155-1.082c-0.077-0.386-0.155-0.695-0.155-1.005c-0.077-0.695-0.077-1.236-0.155-1.932
				c-0.077-0.695-0.232-1.314-0.386-2.009c-0.077-0.695-0.232-1.314-0.386-2.009c-0.077-0.309-0.309-0.85-0.386-1.082
				c0-0.077,0-0.309,0-0.386c0-0.077-0.155-0.541-0.155-0.541c-0.077-0.695-0.155-1.314-0.386-1.932
				c-0.386-1.314-0.695-2.627-0.927-4.018c-0.155-0.077-0.232-0.232-0.155-0.386c0-0.155,0-0.232,0-0.386
				c0,0.155-0.155-0.386-0.155-0.386c-0.155-0.386-0.232-0.773-0.386-1.082c-0.232-0.618-0.386-1.236-0.541-1.855
				c-0.464-1.391-0.85-2.705-1.314-4.095c-0.464-1.391-1.005-2.705-1.468-4.095c-0.464-1.314-1.082-2.55-1.468-3.864
				c-0.232-0.773-0.695-1.468-0.927-2.241c-0.077-0.309-0.232-0.618-0.386-0.927c-0.077-0.155-0.232-0.309-0.309-0.464
				c-0.077-0.155,0-0.309-0.077-0.464c-0.695-1.391-1.391-2.705-2.009-4.095c-1.314-2.705-2.782-5.409-4.327-8.036
				c-1.623-2.705-3.245-5.409-5.1-8.036c-0.927-1.314-1.777-2.859-2.782-4.095c-0.618-0.695-1.082-1.314-1.7-2.009
				c-0.232-0.309-0.464-0.618-0.773-0.927c-0.232-0.232-0.541-0.695-0.773-1.005c-0.155-0.155-0.232-0.386-0.386-0.541h-0.155
				c0-0.077,0-0.155,0-0.155h-0.155c0-0.077,0-0.155,0-0.155c0-0.077,0-0.155,0-0.155h-0.155c0-0.077,0-0.155,0-0.155h-0.155
				c0-0.077,0-0.155,0-0.155h-0.155c0-0.077,0-0.155,0-0.155h-0.155c0-0.077,0-0.155,0-0.155h-0.155c0-0.077,0-0.155,0-0.155
				c0-0.077,0-0.155,0-0.155h-0.155c0-0.077,0-0.155,0-0.155h-0.155c-0.85-1.545-2.318-2.473-3.4-3.864
				c-1.082-1.391-2.473-2.705-3.786-4.018c-2.55-2.55-5.023-5.023-7.805-7.264c-2.318-1.855-4.559-3.864-7.032-5.564
				c-1.159-0.773-2.241-1.623-3.4-2.473c-1.159-0.773-2.395-1.545-3.555-2.318c-4.327-3.014-9.195-5.409-13.986-7.805
				c-4.482-2.241-9.195-3.941-13.909-5.718c-2.318-0.85-4.714-1.623-7.032-2.241c-2.318-0.618-4.791-1.082-7.032-1.932h-0.773
				c0-0.077,0-0.155,0-0.155h-0.927c0-0.077,0-0.155,0-0.155h-0.927c0-0.077,0-0.155,0-0.155h-0.232c0-0.077,0-0.155,0-0.155h-0.927
				c0-0.077,0-0.155,0-0.155h-0.927c0-0.077,0-0.155,0-0.155h-1.082c0-0.077,0-0.155,0-0.155h-0.927c0-0.077,0-0.155,0-0.155h-1.082
				c0-0.077,0-0.155,0-0.155h-1.314c0-0.077,0-0.155,0-0.155h-1.314c0-0.077,0-0.155,0-0.155h-1.314c0-0.077,0-0.155,0-0.155h-1.7
				c0-0.077,0-0.155,0-0.155h-1.7c0-0.077,0-0.155,0-0.155h-2.009c0-0.077,0-0.155,0-0.155h-2.395c0-0.077,0-0.155,0-0.155h-2.936
				c0-0.077,0-0.155,0-0.155h-11.9c0,0.077,0,0.155,0,0.155h-2.936c0,0.077,0,0.155,0,0.155h-2.395c0,0.077,0,0.155,0,0.155h-2.009
				c0,0.077,0,0.155,0,0.155h-1.7c0,0.077,0,0.155,0,0.155h-1.468c0,0.077,0,0.155,0,0.155h-1.314c0,0.077,0,0.155,0,0.155h-1.314
				c0,0.077,0,0.155,0,0.155h-1.314c0,0.077,0,0.155,0,0.155h-1.159c0,0.077,0,0.155,0,0.155h-1.082c0,0.077,0,0.155,0,0.155h-0.927
				c0,0.077,0,0.155,0,0.155h-1.082c0,0.077,0,0.155,0,0.155h-0.927c0,0.077,0,0.155,0,0.155H285.6c0,0.077,0,0.155,0,0.155h-0.773
				c0,0.077,0,0.155,0,0.155H283.9c0,0.077,0,0.155,0,0.155h-0.927c-2.55,0.927-5.332,1.391-7.959,2.164
				c-2.627,0.773-5.255,1.623-7.805,2.627c-4.791,1.855-9.427,3.709-13.986,6.027c-2.395,1.159-4.714,2.395-6.955,3.786
				c-2.395,1.391-4.636,3.014-7.032,4.327c-2.473,1.391-4.636,3.323-6.955,5.023c-1.236,0.85-2.395,1.777-3.555,2.782
				c-1.082,1.005-2.395,1.855-3.4,2.859c-2.241,2.241-4.714,4.405-7.032,6.645c-1.159,1.159-2.164,2.318-3.323,3.555
				c-0.541,0.541-1.159,1.236-1.7,1.855c-0.309,0.309-1.159,1.082-1.082,1.545h-0.155c0,0.077,0,0.155,0,0.155h-0.309
				c0,0.077,0,0.155,0,0.155h-0.155c0,0.077,0,0.155,0,0.155h-0.155c0,0.077,0,0.155,0,0.155h-0.155c0,0.077,0,0.155,0,0.155v0.155
				h-0.155c0,0.077,0,0.155,0,0.155h-0.155c0,0.077,0,0.155,0,0.155H210.8c0,0.077,0,0.155,0,0.155h-0.155
				c-0.077,0.155-0.155,0.232-0.155,0.386c-0.155,0.309-0.541,0.773-0.773,1.005c-0.309,0.309-0.464,0.618-0.773,0.927
				c-0.541,0.618-1.005,1.159-1.468,1.855c-0.927,1.391-2.009,2.705-2.936,4.095c-0.927,1.314-1.7,2.782-2.627,4.095
				c-0.464,0.695-0.85,1.391-1.314,2.009c-0.464,0.695-0.927,1.314-1.314,2.009c-0.618,1.314-1.545,2.55-2.241,3.864
				c-1.314,2.705-2.782,5.409-4.095,8.191c-1.236,2.55-2.086,5.409-3.323,7.959c-0.077,0.232-0.155,0.541-0.155,0.773
				c-0.077,0.155-0.155,0.309-0.155,0.464c-0.077,0.309-0.232,0.695-0.386,1.005c-0.232,0.618-0.541,1.236-0.773,1.855
				c-0.464,1.391-0.85,2.705-1.314,4.095c-0.85,2.627-1.468,5.409-2.241,8.036c-0.232,0.695-0.232,1.391-0.386,2.164
				c0,0.077-0.155,0.232-0.155,0.386s0,0.386,0,0.541c-0.077,0.232-0.309,0.695-0.386,0.927c-0.155,0.773-0.309,1.391-0.386,2.164
				c-0.077,0.695-0.309,1.314-0.386,1.932c-0.386,2.705-0.773,5.332-1.082,8.036c-0.618,5.255-0.773,10.586-0.773,16.15
				s0.464,10.895,1.236,16.15c0.155,1.314,0.464,2.627,0.618,4.018c0.077,0.695,0.155,1.545,0.386,2.241
				c0.232,0.618,0.155,1.236,0.386,1.855c0.232,0.618,0.232,1.314,0.386,2.009c0.077,0.618,0.386,1.391,0.541,2.009
				c0.464,1.314,0.541,2.705,0.927,4.018c0.386,1.314,0.927,2.627,1.082,4.018c0,0.232,0.309,0.541,0.386,0.773
				c0,0.077,0,0.232,0,0.386c0.155,0.386,0.232,0.695,0.386,1.082c0.232,0.618,0.386,1.236,0.541,1.855
				c0.155,0.386,0.386,0.695,0.541,1.082c0.155,0.309,0.077,0.618,0.155,0.927c0.155,0.386,0.386,0.773,0.541,1.082
				c0.155,0.232,0.077,0.695,0.155,0.927c0.618,1.314,1.236,2.705,1.7,4.095c0.232,0.695,0.618,1.391,0.927,2.009
				c0.309,0.618,0.464,1.236,0.773,1.855c0.695,1.391,1.391,2.705,2.009,4.095c0.618,1.391,1.236,2.782,2.009,4.095
				c0.386,0.618,0.695,1.391,1.082,2.009s0.773,1.391,1.082,2.009c0.155,0.386,0.541,0.773,0.773,1.082s0.386,0.618,0.541,0.927
				c0.386,0.618,0.695,1.236,1.082,1.855c0.927,1.391,1.7,2.782,2.782,4.095c0.464,0.541,0.85,1.391,1.314,2.009
				c0.464,0.695,1.005,1.391,1.468,2.009c0.541,0.695,1.082,1.314,1.7,2.009c0.155,0.232,0.386,0.695,0.541,0.927
				c0.309,0.309,0.773,0.541,0.773,1.005h0.155c0.155,0.155,0.232,0.386,0.386,0.541h0.155c0,0.077,0,0.155,0,0.155v0.155h0.155
				c0,0.077,0,0.155,0,0.155h0.155c0,0.077,0,0.155,0,0.155h0.155c0,0.077,0,0.155,0,0.155h0.155c0,0.077,0,0.155,0,0.155h0.155
				c0,0.077,0,0.155,0,0.155v0.155h0.155c0,0.077,0,0.155,0,0.155h0.155c0,0.077,0,0.155,0,0.155h0.155
				c0.85,1.545,2.318,2.473,3.4,3.864c1.082,1.314,2.473,2.627,3.709,3.864c2.473,2.473,5.023,4.945,7.727,7.109
				c2.318,1.932,4.636,3.786,7.032,5.564c2.241,1.623,4.482,3.4,6.877,4.791c4.559,2.705,9.118,5.409,13.909,7.805
				c4.482,2.241,9.195,4.173,13.909,5.718c2.241,0.773,4.559,1.468,6.877,2.241s4.791,1.082,7.032,1.932h0.927
				c0.232,0.155,0.464,0.232,0.773,0.386h0.927c0,0.077,0,0.155,0,0.155h0.927c0,0.077,0,0.155,0,0.155h0.927
				c0,0.077,0,0.155,0,0.155h0.927c0,0.077,0,0.155,0,0.155h1.082c0,0.077,0,0.155,0,0.155h0.927c0,0.077,0,0.155,0,0.155h1.082
				c0,0.077,0,0.155,0,0.155h1.314c0,0.077,0,0.155,0,0.155h1.082c0,0.077,0,0.155,0,0.155h1.314c0,0.077,0,0.155,0,0.155h1.468
				c0,0.077,0,0.155,0,0.155h1.7c0,0.077,0,0.155,0,0.155h1.855c0,0.077,0,0.155,0,0.155h2.009c0,0.077,0,0.155,0,0.155h2.936
				c0,0.077,0,0.155,0,0.155h3.323c0,0.077,0,0.155,0,0.155h8.191c0.618,0.695-0.386,1.314-0.773,1.777
				c-0.386,0.541-0.85,1.082-1.314,1.7c-0.464,0.541-0.927,1.314-1.391,1.932c-0.464,0.618-1.005,1.159-1.391,1.777
				c-0.85,1.314-1.932,2.395-2.859,3.632c-0.464,0.618-0.927,1.236-1.391,1.855c-0.464,0.541-0.85,1.236-1.314,1.777
				c-0.541,0.618-1.005,1.236-1.468,1.855c-0.464,0.618-1.005,1.159-1.391,1.777c-0.386,0.695-1.005,1.314-1.545,1.932
				c-0.464,0.541-0.85,1.082-1.314,1.7c-0.927,1.159-1.855,2.55-2.782,3.709c-1.932,2.395-3.786,4.791-5.718,7.264
				c-0.927,1.082-1.7,2.395-2.627,3.555c-1.005,1.236-2.009,2.395-2.936,3.709c-0.927,1.236-1.855,2.395-2.782,3.632
				c-0.927,1.159-1.932,2.395-2.782,3.632c-0.85,1.314-1.932,2.395-2.859,3.632c-0.927,1.159-1.777,2.473-2.705,3.632
				c-2.009,2.395-3.864,4.791-5.718,7.264c-3.709,4.868-7.495,9.736-11.205,14.527c-0.927,1.236-2.009,2.318-2.859,3.632
				c-0.386,0.618-1.005,1.236-1.468,1.855c-0.464,0.541-0.85,1.314-1.314,1.855c-2.009,2.395-3.786,4.868-5.718,7.264
				c-0.927,1.159-1.777,2.318-2.782,3.555c-0.464,0.618-0.927,1.314-1.391,1.932c-0.464,0.618-0.927,1.159-1.391,1.777
				c-0.927,1.236-1.932,2.395-2.859,3.632c-0.927,1.159-1.777,2.473-2.705,3.632c-2.009,2.395-3.786,4.791-5.718,7.264
				c-1.855,2.395-3.786,4.791-5.564,7.264c-1.777,2.395-3.632,4.868-5.564,7.264c-2.009,2.395-3.786,4.868-5.718,7.341
				c-1.932,2.395-3.786,4.791-5.641,7.264c-0.927,1.159-1.777,2.473-2.705,3.632c-1.005,1.236-1.932,2.318-2.782,3.632h-0.155
				c-1.159,1.855-2.627,3.477-4.018,5.177c-1.314,1.7-2.627,3.555-4.018,5.255c-2.473,3.091-4.791,6.182-7.264,9.273
				c-1.236,1.623-2.55,3.091-3.786,4.714c-0.618,0.773-1.159,1.545-1.777,2.318c-0.541,0.695-1.314,1.545-1.777,2.318
				s-1.236,1.623-1.777,2.318c-0.618,0.773-1.236,1.545-1.855,2.318c-1.159,1.468-2.473,3.014-3.4,4.636
				c-0.464,0.773-0.85,1.545-1.005,2.395c-0.232,0.927-0.077,1.468,0.155,2.318c0.232,0.773,0.618,1.623,1.391,2.086
				c0.695,0.464,1.545,0.695,2.318,1.005h1.468c0,0.077,0,0.155,0,0.155h261.104c0-0.077,0-0.155,0-0.155h1.468
				c0.927-0.309,1.855-0.618,2.705-1.159c0.773-0.541,1.314-1.7,1.468-2.55c0.386-1.7,0.464-3.4,0.464-5.255
				c0-6.182,0-12.441,0-18.623s0-12.364,0-18.545c0-0.773,0-1.623,0-2.395c0-6.723,0-13.445,0-20.245s0-13.523,0-20.323
				c0-6.723,0-13.445,0-20.245c0-6.723,0-13.445,0-20.245c0-3.4,0-6.723,0-10.123C443.545,482.7,443.623,481,443.391,479.455z
				 M305.227,382.786c0-0.077,0-0.155,0-0.155h-2.009c0-0.077,0-0.155,0-0.155h-1.7c0-0.077,0-0.155,0-0.155h-1.314
				c0-0.077,0-0.155,0-0.155h-1.314c0-0.077,0-0.155,0-0.155h-1.082c0-0.077,0-0.155,0-0.155h-1.082c0-0.077,0-0.155,0-0.155H295.8
				c0-0.077,0-0.155,0-0.155h-0.927c0-0.077,0-0.155,0-0.155h-0.927c-0.464-0.155-1.005-0.386-1.468-0.541h-0.927
				c-1.545-0.618-3.168-0.927-4.714-1.391c-3.323-1.082-6.645-2.241-9.736-3.786c-3.323-1.623-6.723-3.168-9.736-5.255
				c-1.623-1.159-3.323-2.241-4.945-3.4c-1.7-1.159-3.245-2.55-4.791-3.864c-1.7-1.391-3.4-2.782-4.945-4.327
				c-1.623-1.623-2.936-3.323-4.559-4.945c-1.468-1.468-2.782-3.168-3.864-4.791c-1.159-1.7-2.395-3.168-3.4-4.945
				c-0.464-0.85-1.082-1.623-1.545-2.395c-0.541-0.773-0.927-1.623-1.391-2.395c-0.927-1.545-1.777-3.245-2.473-4.945
				c-0.773-1.623-1.468-3.245-2.241-4.791c-0.155-0.386-0.155-0.927-0.386-1.314c-0.155-0.386-0.464-0.695-0.541-1.082
				c-0.309-0.85-0.464-1.7-0.773-2.473c-0.541-1.623-0.927-3.245-1.468-4.791c-0.232-0.773-0.309-1.623-0.541-2.395
				c-0.155-0.386-0.232-0.85-0.309-1.314c-0.077-0.386-0.232-0.85-0.309-1.236c-0.232-1.623-0.541-3.168-0.773-4.791
				c-0.232-1.623-0.541-3.245-0.541-4.945c0-0.85-0.155-1.545-0.155-2.395c0-0.773,0-1.623,0-2.395c0-1.623,0-3.245,0-4.945
				c0-3.323,0.309-6.568,0.85-9.736c0.309-1.623,0.464-3.245,0.85-4.791c0.077-0.386,0.309-0.927,0.386-1.314
				c0.077-0.464,0.077-0.773,0.155-1.236c0.155-0.386,0.309-0.85,0.386-1.236c0.077-0.155,0.077-0.386,0.077-0.541
				c0.077-0.155,0.232-0.464,0.309-0.618c0.155-0.85,0.309-1.623,0.541-2.395c0.232-0.773,0.464-1.623,0.773-2.395
				c0.232-0.773,0.618-1.623,0.927-2.395c0.309-0.85,0.618-1.7,1.005-2.473c0.773-1.623,1.314-3.245,2.164-4.791
				c0.85-1.623,1.623-3.323,2.627-4.945c1.005-1.623,2.009-3.245,3.168-4.791c0.541-0.773,1.005-1.777,1.545-2.473
				c0.618-0.773,1.314-1.545,1.855-2.395c0.541-0.85,1.314-1.623,1.932-2.395c0.695-0.85,1.391-1.623,2.164-2.395
				c1.545-1.545,3.091-3.323,4.714-4.945c1.545-1.545,3.168-2.936,4.791-4.25c1.623-1.314,3.168-2.627,4.945-3.786
				c1.623-1.082,3.245-2.086,4.791-3.168c1.545-1.082,3.323-1.777,4.945-2.705c3.014-1.777,6.414-3.323,9.736-4.405
				c1.623-0.541,3.168-1.159,4.791-1.623c1.623-0.464,3.323-0.85,4.945-1.391h0.927c0.232-0.155,0.464-0.232,0.773-0.386h0.927
				c0-0.077,0-0.155,0-0.155h0.927c0-0.077,0-0.155,0-0.155h0.927c0-0.077,0-0.155,0-0.155h1.082c0-0.077,0-0.155,0-0.155h1.314
				c0-0.077,0-0.155,0-0.155h1.314c0-0.077,0-0.155,0-0.155h1.468c0-0.077,0-0.155,0-0.155h1.855c0-0.077,0-0.155,0-0.155h2.395
				c0-0.077,0-0.155,0-0.155h11.282c0,0.077,0,0.155,0,0.155h2.395c0,0.077,0,0.155,0,0.155h1.7c0,0.077,0,0.155,0,0.155h1.468
				c0,0.077,0,0.155,0,0.155h1.314c0,0.077,0,0.155,0,0.155h1.314c0,0.077,0,0.155,0,0.155h1.082c0,0.077,0,0.155,0,0.155h0.927
				c0,0.077,0,0.155,0,0.155h0.927c0,0.077,0,0.155,0,0.155h0.927c0,0.077,0,0.155,0,0.155h0.927
				c0.464,0.155,1.005,0.386,1.468,0.541h0.927c1.468,0.695,3.245,1.005,4.791,1.545c3.323,1.082,6.491,2.473,9.736,3.786
				c1.7,0.695,3.245,1.7,4.945,2.55c1.7,0.85,3.323,1.777,4.791,2.859c1.623,1.159,3.323,2.164,4.945,3.4
				c1.623,1.314,3.323,2.627,4.945,3.941c1.7,1.391,3.323,2.936,4.945,4.559c0.85,0.85,1.468,1.623,2.241,2.395
				c0.773,0.773,1.545,1.545,2.241,2.395c2.55,3.245,5.177,6.414,7.264,9.814c1.005,1.623,2.009,3.168,2.859,4.791
				c0.386,0.85,0.773,1.7,1.314,2.473c0.464,0.773,0.773,1.623,1.082,2.395c0.232,0.464,0.541,0.85,0.773,1.314
				c0.155,0.386,0.232,0.773,0.386,1.082c0.386,0.85,0.773,1.7,1.082,2.473c0.309,0.773,0.541,1.623,0.85,2.395
				c0.309,0.85,0.541,1.7,0.85,2.473c0.541,1.545,1.005,3.168,1.314,4.791c0,0.155,0.155,0.232,0.155,0.386s0,0.232,0,0.386
				c0,0.232,0.155,0.386,0.155,0.541c0.155,0.386,0.232,0.85,0.309,1.236c0.155,0.773,0.232,1.623,0.464,2.395
				c0.386,1.623,0.541,3.245,0.773,4.945c0.077,0.773,0.232,1.7,0.386,2.395c0.077,0.386-0.077,0.85,0,1.314
				c0.077,0.386,0.155,0.695,0.155,1.082c0,1.7,0.155,3.245,0.155,4.945c0,0.773,0,1.623,0,2.395c0,0.464,0,0.85,0,1.314
				c0,0.464-0.155,0.773-0.155,1.236c-0.232,1.623,0.077,3.245-0.155,4.791c-0.232,1.623-0.464,3.323-0.773,4.945
				c-0.155,0.85-0.232,1.623-0.386,2.473c-0.155,0.773-0.464,1.623-0.541,2.395c-0.232,1.7-0.773,3.245-1.236,4.945
				c-0.386,1.623-1.005,3.245-1.545,4.791c-0.155,0.464-0.232,0.85-0.386,1.314c-0.155,0.386-0.386,0.773-0.541,1.236
				c-0.309,0.85-0.618,1.623-0.927,2.395c-0.309,0.85-0.85,1.545-1.082,2.395c-0.309,0.85-0.773,1.777-1.236,2.473
				c-0.927,1.545-1.623,3.245-2.627,4.791c-2.009,3.4-4.405,6.568-6.877,9.814c-1.314,1.7-2.859,3.245-4.173,4.945
				c-0.695,0.85-1.623,1.623-2.395,2.395s-1.545,1.7-2.395,2.395c-3.245,2.705-6.336,5.409-9.814,7.805
				c-3.168,2.086-6.336,4.095-9.736,5.795c-3.168,1.623-6.414,3.091-9.814,4.173c-1.623,0.541-3.168,1.082-4.791,1.545
				c-1.623,0.464-3.323,0.773-4.945,1.391H329.8c0,0.077,0,0.155,0,0.155h-0.927c0,0.077,0,0.155,0,0.155h-1.082
				c0,0.077,0,0.155,0,0.155h-0.927c0,0.077,0,0.155,0,0.155h-1.082c0,0.077,0,0.155,0,0.155h-1.314c0,0.077,0,0.155,0,0.155H323
				c0,0.077,0,0.155,0,0.155h-1.7c0,0.077,0,0.155,0,0.155h-2.009c0,0.077,0,0.155,0,0.155h-3.323c0,0.077,0,0.155,0,0.155h-7.032
				c0-0.077,0-0.155,0-0.155h-3.709V382.786z"/>
			<path fill="#3A3B3B" d="M309.786,416.245c-64.755,0-117.455-52.7-117.455-117.455s52.7-117.455,117.455-117.455
				s117.377,52.7,117.377,117.455S374.541,416.245,309.786,416.245z M309.786,200.191c-54.4,0-98.677,44.277-98.677,98.677
				s44.277,98.677,98.677,98.677s98.677-44.277,98.677-98.677S364.186,200.191,309.786,200.191z"/>
			<path fill="#3A3B3B" d="M309.786,425.905c-70.086,0-127.114-57.027-127.114-127.114S239.7,171.755,309.786,171.755
				s127.036,57.027,127.036,127.114S379.873,425.905,309.786,425.905z M309.786,209.85c-49.068,0-89.018,39.95-89.018,89.018
				s39.95,89.018,89.018,89.018s89.018-39.95,89.018-89.018C398.805,249.8,358.855,209.85,309.786,209.85z"/>
			<polygon fill="#3A3B3B" points="427.318,611.282 191.482,611.282 392.932,352.032 407.768,363.545 229.809,592.505 
				408.618,592.505 408.618,531.459 427.318,507.427 			"/>
			<polygon fill="#3A3B3B" points="436.977,620.941 171.777,620.941 370.368,365.323 407.614,379.386 249.591,582.845 
				398.959,582.845 398.959,528.136 436.977,479.223 			"/>
		</g>
		<g>
			
				<image overflow="visible" opacity="0.24" enable-background="new    " width="1483" height="2479" xlink:href="CCEEA71D9F689B24.png"  transform="matrix(0.1852 0 0 0.1849 162.5039 168.6918)">
			</image>
			<g>
				<g>
					<g>
						<path fill="#F3F3F3" d="M302.832,418.564c-64.755,0-117.455-52.7-117.455-117.455s52.7-117.455,117.455-117.455
							s117.377,52.7,117.377,117.455S367.586,418.564,302.832,418.564z M302.832,202.509c-54.4,0-98.677,44.277-98.677,98.677
							s44.277,98.677,98.677,98.677s98.677-44.277,98.677-98.677S357.232,202.509,302.832,202.509z"/>
						<path fill="#F3F3F3" d="M302.832,428.223c-70.086,0-127.114-57.027-127.114-127.114s57.027-127.036,127.114-127.036
							S429.868,231.1,429.868,301.186S372.918,428.223,302.832,428.223z M302.832,212.168c-49.068,0-89.018,39.95-89.018,89.018
							s39.95,89.018,89.018,89.018s89.018-39.95,89.018-89.018C391.85,252.118,351.9,212.168,302.832,212.168z"/>
					</g>
					<g>
						<g>
							<polygon fill="#F3F3F3" points="420.364,613.6 184.527,613.6 385.977,354.35 400.814,365.864 222.855,594.823 
								401.664,594.823 401.664,533.777 420.364,509.745 							"/>
							<polygon fill="#F3F3F3" points="430.023,623.259 164.823,623.259 363.414,367.641 400.659,381.705 242.636,585.164 
								392.005,585.164 392.005,530.455 430.023,481.541 							"/>
						</g>
					</g>
				</g>
			</g>
		</g>
	</g>
	
		<image overflow="visible" enable-background="new    " width="1525" height="2488" xlink:href="CCEEA71D9F689B25.png"  transform="matrix(0.1851 0 0 0.1854 161.7117 165.7941)">
	</image>
</g>
</svg>
